<?xml version="1.0" encoding="utf-8"?>
<!-- Generator: Adobe Illustrator 16.0.0, SVG Export Plug-In . SVG Version: 6.00 Build 0)  -->
<!DOCTYPE svg PUBLIC "-//W3C//DTD SVG 1.1//EN" "http://www.w3.org/Graphics/SVG/1.1/DTD/svg11.dtd">
<svg version="1.1" id="Layer_1" xmlns="http://www.w3.org/2000/svg" xmlns:xlink="http://www.w3.org/1999/xlink" x="0px" y="0px"
	 width="100px" height="100px" viewBox="0 0 100 100" enable-background="new 0 0 100 100" xml:space="preserve">
<g>
	<path fill-rule="evenodd" clip-rule="evenodd" fill="#FFFFFF" d="M73.484,0.231h-0.038l-0.038-0.019L73.39,0.193v-0.02V0.135v-0.02
		l0.019-0.038l0.02-0.02l0.019-0.038h0.02L73.484,0l0.019,0.02l0.02,0.019v0.019v0.058v0.078L73.484,0.231L73.484,0.231
		L73.484,0.231z M74.874,96.023V95.85V96.023L74.874,96.023z M77.386,45.633V45.44V45.633L77.386,45.633z M50.631,1.772l4.909,0.25
		l4.776,0.732l4.624,1.194l4.414,1.618l4.206,2.042l3.977,2.407l3.711,2.774l3.426,3.121l3.12,3.429l2.778,3.698l2.417,3.988
		l2.036,4.199l1.617,4.431l1.18,4.604l0.742,4.777l0.247,4.931l-0.247,4.913l-0.742,4.775l-1.18,4.604l-1.617,4.432l-2.036,4.199
		l-2.417,3.967l-2.778,3.719l-3.12,3.41l-3.426,3.119l-3.711,2.775l-3.977,2.428l-4.206,2.021l-4.414,1.617l-4.624,1.195
		l-4.776,0.73l-4.909,0.252l-4.929-0.252l-4.757-0.73l-4.624-1.195l-4.415-1.617l-4.206-2.021l-3.977-2.428l-3.71-2.775
		l-3.425-3.119l-3.102-3.41l-2.778-3.719l-2.417-3.967l-2.036-4.199l-1.617-4.432l-1.199-4.604l-0.723-4.775l-0.248-4.913
		l0.248-4.931l0.723-4.777l1.199-4.604l1.617-4.431l2.036-4.199l2.417-3.988l2.778-3.698l3.102-3.429l3.425-3.121l3.71-2.774
		l3.977-2.407l4.206-2.042l4.415-1.618l4.624-1.194l4.757-0.732L50.631,1.772L50.631,1.772L50.631,1.772z M52.724,9.208l3.235,0.328
		l3.14,0.559l3.045,0.77l2.93,0.982l2.836,1.175l2.702,1.387l2.569,1.58l2.454,1.772l2.303,1.946l2.169,2.138l1.998,2.292
		l1.846,2.446l1.693,2.62l1.484,2.755l1.332,2.908l1.123,3.043l0.837,3.294l0.571,3.313l0.305,3.275l0.057,3.235l-0.19,3.199
		l-0.457,3.158l-0.685,3.082l-0.932,3.023l-1.18,2.928l-1.408,2.832l-1.619,2.734l-1.863,2.621l-2.074,2.484l-2.284,2.369
		l-2.512,2.215l-2.702,2.061l-2.15,1.311l-2.17,1.156l-2.169,1.021l-2.206,0.904l-2.228,0.752l-2.264,0.635l-2.303,0.502
		l-2.379,0.365l-2.436,0.25l-2.512,0.117l-3.235-0.174l-3.159-0.424l-3.063-0.617l-3.007-0.848l-2.893-1.059l-2.778-1.252
		l-2.664-1.445l-2.55-1.656l-2.417-1.83l-2.284-2.004l-2.131-2.176l-1.979-2.35l-1.808-2.523l-1.618-2.658l-1.465-2.832
		l-1.256-2.967l-0.799-2.619l-0.647-2.582l-0.476-2.6l-0.304-2.582l-0.152-2.562l0.019-2.581l0.171-2.6l0.342-2.601l0.533-2.639
		l0.685-2.659l0.952-2.6l1.084-2.504l1.218-2.408l1.351-2.292l1.484-2.177l1.599-2.081l1.731-1.965l1.865-1.849l1.979-1.715
		l2.112-1.599l2.227-1.464l2.34-1.329l2.436-1.214l2.569-1.059l1.389-0.462l1.37-0.404l1.37-0.366l1.371-0.308l1.37-0.27l1.37-0.231
		l1.408-0.192L47.7,9.285l1.447-0.077l1.484-0.058L52.724,9.208L52.724,9.208L52.724,9.208z M59.822,55.32v-0.25V55.32L59.822,55.32
		z M25.284,64.76h-8.658l-1.294-3.447l-0.933-3.545l-0.571-3.602l-0.209-3.622l0.152-3.621l0.476-3.583l0.837-3.525l1.142-3.447
		l1.484-3.313l1.808-3.178l2.093-2.986l2.417-2.793l2.702-2.542l3.006-2.292l3.292-1.984l3.559-1.657l-0.057,9.939l3.615-1.695
		l0.133,31.089l0.133,31.09l-0.856-0.309L38.7,85.41l-0.838-0.328l-0.837-0.367l-0.837-0.365l-0.818-0.385l-0.819-0.385
		l-0.818-0.424l-0.837-0.443l-0.818-0.443l-0.096-28.432l-10.561,0.135l0.209,1.078l0.229,1.137l0.285,1.156l0.343,1.176
		l0.361,1.174l0.419,1.137l0.438,1.1l0.495,1.039l0.533,0.943L25.284,64.76L25.284,64.76L25.284,64.76z M46.406,87.201l0.114-66.514
		l-0.989,0.097l-0.933,0.173l-0.895,0.193l-0.856,0.231l-0.837,0.27l-0.799,0.289l-0.781,0.308l-0.78,0.328l-0.761,0.327
		l-0.78,0.328l-0.039-8.167l2.531-0.886l2.587-0.655l2.645-0.462l2.684-0.25l2.702-0.039l2.74,0.154l2.759,0.327l2.74,0.539
		l2.76,0.713l2.74,0.886l-0.058,8.283l-0.951-0.462l-0.989-0.443l-1.009-0.404l-1.009-0.366l-0.989-0.327l-1.009-0.289l-0.971-0.25
		L57.044,20.9l-0.914-0.173l-0.856-0.116v66.725l-0.875,0.02l-0.895,0.02l-0.875,0.037l-0.895,0.039l-0.875,0.02h-0.895l-0.875-0.02
		l-0.894-0.039l-0.895-0.096L46.406,87.201L46.406,87.201L46.406,87.201z M66.767,16.296l0.077,10.44l-4.377-2.177l0.19,61.177
		l2.55-1.039l2.436-1.137l2.283-1.232l2.15-1.369l2.036-1.463l1.885-1.561l1.75-1.656l1.637-1.754l1.502-1.848l1.371-1.947
		l1.237-2.002l1.122-2.1l-9.038,0.057l-0.419,0.732l-0.438,0.674l-0.477,0.637l-0.476,0.598l-0.494,0.557l-0.495,0.521l-0.494,0.5
		l-0.514,0.482l-0.496,0.443l-0.494,0.441l-0.057-16.623l8.563,0.059l-0.133-7.069h-8.487V27.911l1.161,0.944l1.065,1.021
		l0.971,1.117l0.875,1.136l0.8,1.175l0.704,1.175l0.646,1.137l0.571,1.059l0.532,1.002l0.457,0.886h8.05l-0.743-2.407l-1.009-2.35
		l-1.217-2.312l-1.446-2.234l-1.599-2.138l-1.751-2.023l-1.884-1.887l-1.941-1.753l-2.017-1.58l-2.055-1.387l-2.056-1.214
		L66.767,16.296L66.767,16.296L66.767,16.296z M21.592,45.556H32.21l0.076-18.55l-1.579,1.213l-1.542,1.56l-1.465,1.811l-1.37,2.003
		l-1.237,2.119l-1.104,2.177l-0.914,2.138l-0.723,2.042l-0.514,1.868L21.592,45.556L21.592,45.556L21.592,45.556z"/>
</g>
</svg>
